# xmcd CD database file
#
# Track frame offsets:
#	150
#	21021
#	49713
#	74291
#	98052
#	115792
#	140222
#	161108
#	183899
#	204188
#
# Disc length: 3012 seconds
#
# Revision: 0
# Processed by: cddbd v1.5.2PL0 Copyright (c) Steve Scherf et al.
# Submitted via: CDex 1.51
#
DISCID=840bc20a
DTITLE=Clemens Gutjahr Trio - Entkalker
DYEAR=2015
DGENRE=Jazz
TTITLE0=Käfer im Tee
TTITLE1=Erste Sonne
TTITLE2=Schwarz auf Weiß
TTITLE3=Eis
TTITLE4=Kleiner König
TTITLE5=Entkalker
TTITLE6=Haus am See
TTITLE7=Muskatcookie
TTITLE8=Polenta
TTITLE9=Zerbrechlichkeit
EXTD=YEAR: 2015
EXTT0=
EXTT1=
EXTT2=
EXTT3=
EXTT4=
EXTT5=
EXTT6=
EXTT7=
EXTT8=
EXTT9=
PLAYORDER=
